TITLE "The Triplets of Belleville"
PERFORMER "Ben Charest"
CATALOG 0724359034621
REM GENRE "Soundtrack"
REM DATE "2004"
REM DISCID EF0BDF13
FILE "The Triplets of Belleville.flac" WAVE
  TRACK 01 AUDIO
    TITLE "Under the Bridge"
    ISRC FR74Q0300001
    INDEX 01 00:00:00
  TRACK 02 AUDIO
    TITLE "Belleville Rendez-Vous (French) - M"
    ISRC FRY680300040
    INDEX 01 01:47:50
  TRACK 03 AUDIO
    TITLE "Opening Theme"
    ISRC FR74Q0300003
    INDEX 01 04:58:35
  TRACK 04 AUDIO
    TITLE "Cabaret Opening -Béatrice Bonifassi, Lina Boudrault, Marie-Lou Gauthier"
    ISRC FR74Q0300004
    INDEX 01 05:50:60
  TRACK 05 AUDIO
    TITLE "Tour De France - Jean-Claude Donda"
    ISRC FR74Q0300005
    INDEX 01 09:03:60
  TRACK 06 AUDIO
    TITLE "Atilla Marcel - Béatrice Bonifassi"
    ISRC FR74Q0300006
    INDEX 01 10:31:55
  TRACK 07 AUDIO
    TITLE "Bruno's Theme - Marin Natsurika"
    ISRC FR74Q0300007
    INDEX 01 12:53:47
  TRACK 08 AUDIO
    TITLE "Easy, Bruno. Easy"
    ISRC FR74Q0300008
    INDEX 01 14:20:40
  TRACK 09 AUDIO
    TITLE "Belleville Rendez-Vous (Demo)- Béatrice Bonifassi"
    ISRC FR74Q0300009
    INDEX 01 17:16:45
  TRACK 10 AUDIO
    TITLE "French Mafia Theme"
    ISRC FR74Q0300010
    INDEX 01 20:40:20
  TRACK 11 AUDIO
    TITLE "Jazzy Bach"
    ISRC FR74Q0300011
    INDEX 01 22:26:70
  TRACK 12 AUDIO
    TITLE "Cabaret Hoover"
    ISRC FR74Q0300012
    INDEX 01 23:47:02
  TRACK 13 AUDIO
    TITLE "Belleville Jungle - Chet Doxas"
    ISRC FR74Q0300013
    INDEX 01 26:09:00
  TRACK 14 AUDIO
    TITLE ""Cieco Cieco" Barber- Charles Prevost Linton"
    ISRC FR74Q0300014
    INDEX 01 29:09:52
  TRACK 15 AUDIO
    TITLE "Pa Pa Pa Palavas"
    ISRC FR74Q0300016
    INDEX 01 30:58:20
  TRACK 16 AUDIO
    TITLE "The Return of the French Mafia"
    ISRC FR74Q0300015
    INDEX 01 33:48:55
  TRACK 17 AUDIO
    TITLE "The Shadowing"
    ISRC FR74Q0300017
    INDEX 01 35:25:02
  TRACK 18 AUDIO
    TITLE "The Chase"
    ISRC FR74Q0300018
    INDEX 01 38:15:65
  TRACK 19 AUDIO
    TITLE "Belleville Rendez-Vous (English) - M"
    ISRC FRY680300041
    INDEX 01 44:42:17
